<svg width="27" height="27" viewBox="0 0 27 27" fill="none" xmlns="http://www.w3.org/2000/svg">
<circle cx="13.5" cy="13.5" r="13.5" fill="#56B8FF"/>
<path d="M19.3501 13.4126C19.3501 13.8876 19.2907 14.3477 19.172 14.7931C19.0384 15.3868 18.8009 15.9657 18.4892 16.4704C17.465 18.1923 15.5798 19.3501 13.4126 19.3501C11.8837 19.3501 10.5032 18.7711 9.46415 17.8211C9.01884 17.4352 8.63289 16.9751 8.33602 16.4704C7.7868 15.5798 7.4751 14.5259 7.4751 13.4126C7.4751 11.8095 8.11339 10.34 9.15245 9.27122C10.236 8.15794 11.7501 7.4751 13.4126 7.4751C15.1642 7.4751 16.7524 8.23215 17.8212 9.44934C18.7712 10.5032 19.3501 11.8985 19.3501 13.4126Z" stroke="#FBFCFD" stroke-width="1.2" stroke-miterlimit="10" stroke-linecap="round" stroke-linejoin="round"/>
<path d="M15.6241 13.3838H11.2007" stroke="#FBFCFD" stroke-width="1.2" stroke-miterlimit="10" stroke-linecap="round" stroke-linejoin="round"/>
<path d="M13.4126 11.2153V15.6536" stroke="#FBFCFD" stroke-width="1.2" stroke-miterlimit="10" stroke-linecap="round" stroke-linejoin="round"/>
</svg>
