<svg width="38" height="39" viewBox="0 0 38 39" fill="none" xmlns="http://www.w3.org/2000/svg">
<circle cx="19" cy="19.5" r="19" fill="#2B2E41"/>
<path fill-rule="evenodd" clip-rule="evenodd" d="M9.5 20C9.5 14.477 13.977 10 19.5 10C25.023 10 29.5 14.477 29.5 20C29.5 25.523 25.023 30 19.5 30C13.977 30 9.5 25.523 9.5 20ZM19.5 12C17.3783 12 15.3434 12.8429 13.8431 14.3431C12.3429 15.8434 11.5 17.8783 11.5 20C11.5 22.1217 12.3429 24.1566 13.8431 25.6569C15.3434 27.1571 17.3783 28 19.5 28C21.6217 28 23.6566 27.1571 25.1569 25.6569C26.6571 24.1566 27.5 22.1217 27.5 20C27.5 17.8783 26.6571 15.8434 25.1569 14.3431C23.6566 12.8429 21.6217 12 19.5 12Z" fill="white"/>
<path fill-rule="evenodd" clip-rule="evenodd" d="M20.5 15C20.5 14.7348 20.3946 14.4804 20.2071 14.2929C20.0196 14.1054 19.7652 14 19.5 14C19.2348 14 18.9804 14.1054 18.7929 14.2929C18.6054 14.4804 18.5 14.7348 18.5 15V19H14.5C14.2348 19 13.9804 19.1054 13.7929 19.2929C13.6054 19.4804 13.5 19.7348 13.5 20C13.5 20.2652 13.6054 20.5196 13.7929 20.7071C13.9804 20.8946 14.2348 21 14.5 21H18.5V25C18.5 25.2652 18.6054 25.5196 18.7929 25.7071C18.9804 25.8946 19.2348 26 19.5 26C19.7652 26 20.0196 25.8946 20.2071 25.7071C20.3946 25.5196 20.5 25.2652 20.5 25V21H24.5C24.7652 21 25.0196 20.8946 25.2071 20.7071C25.3946 20.5196 25.5 20.2652 25.5 20C25.5 19.7348 25.3946 19.4804 25.2071 19.2929C25.0196 19.1054 24.7652 19 24.5 19H20.5V15Z" fill="white"/>
</svg>
