<svg width="23" height="24" viewBox="0 0 23 24" fill="none" xmlns="http://www.w3.org/2000/svg">
<path d="M15.049 7.25H7.94902C7.28752 7.25 6.74902 7.7885 6.74902 8.45V15.55C6.74902 16.2115 7.28752 16.75 7.94902 16.75H15.049C15.7105 16.75 16.249 16.2115 16.249 15.55V8.45C16.249 7.7885 15.7105 7.25 15.049 7.25ZM11.449 14.2H10.449C10.2281 14.2 10.049 14.0209 10.049 13.8V12.6C10.049 12.4896 9.95947 12.4 9.84902 12.4H9.76262C9.54952 12.4 9.36352 12.2391 9.34987 12.0265C9.33492 11.7935 9.51927 11.6 9.74902 11.6H9.84902C9.95947 11.6 10.049 11.5104 10.049 11.4V10.2C10.049 9.9791 10.2281 9.8 10.449 9.8H11.41C12.6409 9.8 13.6697 10.8073 13.6487 12.0381C13.6283 13.2336 12.6493 14.2 11.449 14.2Z" fill="white"/>
<path d="M12.8485 12.0424C12.8259 12.8039 12.1812 13.4001 11.4194 13.4001H11.0491C10.9387 13.4001 10.8491 13.3105 10.8491 13.2001V12.6001C10.8491 12.4896 10.9387 12.4001 11.0491 12.4001H11.1355C11.3486 12.4001 11.5346 12.2392 11.5483 12.0265C11.5632 11.7935 11.3789 11.6001 11.1491 11.6001H11.0491C10.9387 11.6001 10.8491 11.5105 10.8491 11.4001V10.8001C10.8491 10.6896 10.9387 10.6001 11.0491 10.6001H11.4491C12.2352 10.6001 12.8719 11.2511 12.8485 12.0424Z" fill="white"/>
<path d="M19.8491 10.0378V13.9626C19.8491 14.1803 20.0278 14.3515 20.2455 14.3513C20.4837 14.3511 20.6491 14.1707 20.6491 13.9627V10.0379C20.6491 9.82382 20.476 9.64887 20.2619 9.64947C20.2544 9.64947 20.2469 9.64947 20.2394 9.64942C20.0241 9.64817 19.8491 9.82247 19.8491 10.0378Z" fill="white"/>
<path d="M13.9729 3.78952L17.373 5.75187C17.5592 5.85932 17.7975 5.79552 17.904 5.60882C18.0366 5.37652 17.9398 5.15527 17.7729 5.05897L14.3728 3.09662C14.1871 2.98947 13.949 3.05247 13.8424 3.23847C13.7091 3.47117 13.8056 3.69297 13.9729 3.78952Z" fill="white"/>
<path d="M11.8991 17.9385V19.0119C11.8991 19.2269 11.7246 19.4009 11.5097 19.4C11.502 19.4 11.4943 19.4 11.4866 19.4C11.2725 19.401 11.0991 19.226 11.0991 19.0118V17.9385C11.0991 17.724 11.2731 17.55 11.4876 17.55C11.7506 17.55 11.8991 17.7421 11.8991 17.9385Z" fill="white"/>
<path d="M17.9138 15.6896C17.9099 15.6962 17.9061 15.7028 17.9023 15.7094C17.796 15.8953 17.5579 15.9581 17.3724 15.8511L17.2436 15.7768C17.1233 15.7074 17.0493 15.5793 17.0493 15.4405C17.0494 15.0861 17.3891 14.9371 17.6321 15.0774L17.7723 15.1584C17.9584 15.2659 18.022 15.504 17.9138 15.6896Z" fill="white"/>
<path d="M11.8991 4.98845V6.0616C11.8991 6.27615 11.7252 6.4501 11.5106 6.4501C11.2476 6.4501 11.0991 6.258 11.0991 6.0616V4.98845C11.0991 4.77105 11.2775 4.59995 11.4949 4.6001C11.7362 4.6003 11.8991 4.7827 11.8991 4.98845Z" fill="white"/>
<path d="M17.0493 8.55898C17.0494 8.42028 17.1235 8.29243 17.2437 8.22308L17.3723 8.14883C17.5604 8.04028 17.7975 8.10898 17.9062 8.29703C18.0265 8.50518 17.9508 8.73813 17.772 8.84138L17.6321 8.92218C17.3886 9.06268 17.0492 8.91328 17.0493 8.55898Z" fill="white"/>
<path d="M17.373 18.2482L13.9729 20.2105C13.7866 20.318 13.7227 20.5564 13.8312 20.7421C13.9661 20.9729 14.206 20.9997 14.3728 20.9034L17.7729 18.941C17.9586 18.8338 18.0231 18.596 17.9152 18.4106C17.7805 18.179 17.5403 18.1517 17.373 18.2482Z" fill="white"/>
<path d="M5.6253 5.75186L9.02545 3.78946C9.2117 3.68196 9.2756 3.44356 9.16715 3.25791C9.03225 3.02706 8.79235 3.00031 8.62555 3.09661L5.22545 5.05896C5.0397 5.16616 4.9752 5.40396 5.0831 5.58936C5.21785 5.82101 5.45805 5.84836 5.6253 5.75186Z" fill="white"/>
<path d="M2.34912 10.0379V13.9627C2.34912 14.1801 2.52737 14.3514 2.74477 14.3513C2.98567 14.3511 3.14912 14.1688 3.14912 13.9626V10.0378C3.14912 9.82242 2.97407 9.64817 2.75867 9.64942C2.75117 9.64947 2.74367 9.64947 2.73617 9.64947C2.52217 9.64882 2.34912 9.82387 2.34912 10.0379Z" fill="white"/>
<path d="M9.02541 20.2106L5.62525 18.2482C5.4391 18.1408 5.20075 18.2046 5.09425 18.3913C4.9617 18.6236 5.0585 18.8448 5.2254 18.9411L8.6255 20.9035C8.8112 21.0106 9.04926 20.9476 9.15586 20.7616C9.28921 20.5289 9.19271 20.3071 9.02541 20.2106Z" fill="white"/>
<path d="M5.94902 8.55936C5.94892 8.90991 5.61152 9.06356 5.36632 8.92206L5.22647 8.84136C5.03792 8.73256 4.97912 8.49216 5.08832 8.30386C5.20852 8.09661 5.44752 8.04576 5.62612 8.14886L5.75467 8.22306C5.87502 8.29241 5.94907 8.42046 5.94902 8.55936Z" fill="white"/>
<path d="M5.75473 15.7769L5.62608 15.8512C5.44018 15.9584 5.20223 15.8949 5.09568 15.7086C5.09188 15.702 5.08808 15.6954 5.08423 15.6888C4.97618 15.5035 5.04048 15.2657 5.22623 15.1584L5.36633 15.0775C5.60928 14.9373 5.94898 15.0854 5.94908 15.4403C5.94913 15.5793 5.87503 15.7075 5.75473 15.7769Z" fill="white"/>
<path d="M21.1958 15.4046C20.2886 14.8807 19.1242 15.1927 18.6004 16.1C18.0765 17.0073 18.3885 18.1716 19.2958 18.6955C20.2089 19.2226 21.3708 18.9015 21.8913 18C22.4151 17.0927 22.1031 15.9284 21.1958 15.4046Z" fill="white"/>
<path d="M3.70218 5.30448C2.79488 4.78063 1.63053 5.09263 1.10673 5.99993C0.582876 6.90723 0.894876 8.07153 1.80218 8.59538C2.71523 9.12258 3.87713 8.80138 4.39763 7.89993C4.92148 6.99263 4.60948 5.82833 3.70218 5.30448Z" fill="white"/>
<path d="M1.80218 15.4046C0.894876 15.9284 0.582876 17.0927 1.10673 18C1.45828 18.6089 2.09823 18.9497 2.75538 18.9497C4.20858 18.9497 5.12808 17.3652 4.39763 16.1C3.87378 15.1927 2.70943 14.8807 1.80218 15.4046Z" fill="white"/>
<path d="M20.249 8.84958C21.7021 8.84958 22.6216 7.26488 21.8913 5.99993C21.3674 5.09263 20.2031 4.78063 19.2958 5.30448C18.3885 5.82838 18.0765 6.99268 18.6004 7.89993C18.9519 8.50883 19.5919 8.84958 20.249 8.84958Z" fill="white"/>
<path d="M11.4991 24C12.5485 24 13.3991 23.1493 13.3991 22.1C13.3991 21.0506 12.5485 20.2 11.4991 20.2C10.4498 20.2 9.59912 21.0506 9.59912 22.1C9.59912 23.1493 10.4498 24 11.4991 24Z" fill="white"/>
<path d="M11.4991 3.8C12.5485 3.8 13.3991 2.94934 13.3991 1.9C13.3991 0.850659 12.5485 0 11.4991 0C10.4498 0 9.59912 0.850659 9.59912 1.9C9.59912 2.94934 10.4498 3.8 11.4991 3.8Z" fill="white"/>
</svg>
