<svg width="40" height="40" viewBox="0 0 40 40" fill="none" xmlns="http://www.w3.org/2000/svg">
<circle cx="20" cy="20" r="19.5" stroke="#E44203" stroke-opacity="0.12"/>
<path d="M20.0012 12.0665C22.585 12.0665 22.891 12.0762 23.9117 12.1228C24.5255 12.1303 25.1334 12.243 25.709 12.4559C26.1264 12.6169 26.5055 12.8635 26.8219 13.1799C27.1383 13.4963 27.3849 13.8754 27.5459 14.2928C27.7588 14.8684 27.8715 15.4763 27.879 16.09C27.9251 17.1108 27.9353 17.4168 27.9353 20.0006C27.9353 22.5845 27.9256 22.8905 27.879 23.9112C27.8715 24.525 27.7588 25.1328 27.5459 25.7085C27.3849 26.1259 27.1383 26.505 26.8219 26.8214C26.5055 27.1377 26.1264 27.3843 25.709 27.5453C25.1334 27.7583 24.5255 27.871 23.9117 27.8785C22.8915 27.9246 22.5855 27.9347 20.0012 27.9347C17.4168 27.9347 17.1108 27.9251 16.0906 27.8785C15.4768 27.871 14.8689 27.7583 14.2933 27.5453C13.8759 27.3843 13.4968 27.1377 13.1804 26.8214C12.864 26.505 12.6174 26.1259 12.4564 25.7085C12.2435 25.1328 12.1308 24.525 12.1233 23.9112C12.0772 22.8905 12.067 22.5845 12.067 20.0006C12.067 17.4168 12.0767 17.1108 12.1233 16.09C12.1308 15.4763 12.2435 14.8684 12.4564 14.2928C12.6174 13.8754 12.864 13.4963 13.1804 13.1799C13.4968 12.8635 13.8759 12.6169 14.2933 12.4559C14.8689 12.243 15.4768 12.1303 16.0906 12.1228C17.1113 12.0767 17.4173 12.0665 20.0012 12.0665ZM20.0012 10.3228C17.3744 10.3228 17.0435 10.3338 16.0113 10.3808C15.2081 10.3968 14.4134 10.5489 13.6611 10.8306C13.0157 11.0738 12.4311 11.4548 11.9482 11.9472C11.4553 12.4303 11.074 13.0152 10.8306 13.661C10.5489 14.4134 10.3968 15.208 10.3809 16.0112C10.3348 17.0426 10.3237 17.3734 10.3237 20.0002C10.3237 22.6269 10.3348 22.9578 10.3818 23.99C10.3978 24.7932 10.5499 25.5879 10.8316 26.3403C11.0746 26.986 11.4557 27.5709 11.9482 28.0541C12.4314 28.5466 13.0163 28.9276 13.662 29.1707C14.4143 29.4524 15.209 29.6045 16.0122 29.6204C17.0445 29.6665 17.374 29.6785 20.0021 29.6785C22.6302 29.6785 22.9597 29.6675 23.9919 29.6204C24.7951 29.6045 25.5898 29.4524 26.3422 29.1707C26.9848 28.9216 27.5684 28.5411 28.0556 28.0535C28.5429 27.566 28.923 26.9822 29.1717 26.3393C29.4534 25.587 29.6054 24.7923 29.6214 23.9891C29.6675 22.9578 29.6786 22.6269 29.6786 20.0002C29.6786 17.3734 29.6675 17.0426 29.6205 16.0103C29.6045 15.2071 29.4524 14.4124 29.1707 13.6601C28.9277 13.0144 28.5466 12.4295 28.0541 11.9463C27.5709 11.4538 26.986 11.0727 26.3403 10.8297C25.588 10.548 24.7933 10.3959 23.9901 10.3799C22.9588 10.3338 22.6279 10.3228 20.0012 10.3228Z" fill="#E44203"/>
<path d="M20.0028 15.0305C19.0199 15.0305 18.0591 15.322 17.2418 15.868C16.4246 16.4141 15.7876 17.1903 15.4115 18.0983C15.0354 19.0064 14.9369 20.0056 15.1287 20.9696C15.3204 21.9336 15.7938 22.8191 16.4888 23.5141C17.1838 24.2091 18.0693 24.6824 19.0333 24.8742C19.9973 25.066 20.9965 24.9675 21.9046 24.5914C22.8126 24.2153 23.5888 23.5783 24.1349 22.7611C24.6809 21.9438 24.9724 20.983 24.9724 20.0001C24.9724 18.6821 24.4488 17.4181 23.5168 16.4861C22.5848 15.5541 21.3208 15.0305 20.0028 15.0305ZM20.0028 23.2259C19.3648 23.2259 18.7411 23.0367 18.2106 22.6823C17.6801 22.3278 17.2667 21.824 17.0225 21.2346C16.7784 20.6451 16.7145 19.9965 16.839 19.3708C16.9634 18.745 17.2707 18.1703 17.7218 17.7191C18.1729 17.268 18.7477 16.9607 19.3735 16.8363C19.9992 16.7118 20.6478 16.7757 21.2373 17.0198C21.8267 17.264 22.3305 17.6775 22.685 18.2079C23.0394 18.7384 23.2286 19.3621 23.2286 20.0001C23.2286 20.8556 22.8887 21.6761 22.2838 22.2811C21.6788 22.886 20.8583 23.2259 20.0028 23.2259Z" fill="#E44203"/>
<path d="M25.1681 15.9952C25.8095 15.9952 26.3294 15.4753 26.3294 14.8339C26.3294 14.1925 25.8095 13.6726 25.1681 13.6726C24.5268 13.6726 24.0068 14.1925 24.0068 14.8339C24.0068 15.4753 24.5268 15.9952 25.1681 15.9952Z" fill="#E44203"/>
</svg>
