<svg width="19" height="19" viewBox="0 0 19 19" fill="none" xmlns="http://www.w3.org/2000/svg">
<path fill-rule="evenodd" clip-rule="evenodd" d="M16.645 10.4803C16.4353 10.4803 16.216 10.4133 16.0062 10.3655C15.5815 10.2716 15.164 10.147 14.7572 9.99259C13.8412 9.65839 12.8214 10.0708 12.3928 10.9488L12.183 11.3791C11.2544 10.861 10.401 10.2175 9.6469 9.46669C8.89824 8.71035 8.25664 7.85453 7.74006 6.92319L8.14049 6.65546C9.01592 6.22558 9.42715 5.20275 9.09392 4.28408C8.94253 3.87523 8.81832 3.45678 8.72208 3.03146C8.67441 2.8211 8.63627 2.60117 8.60767 2.38124C8.36847 0.989756 7.15517 -0.0202202 5.74741 0.000307322H2.88714C2.0557 -0.00752217 1.26201 0.347894 0.712794 0.973988C0.163578 1.60008 -0.0867986 2.43488 0.0268736 3.26095C1.07176 11.5017 7.55682 17.9821 15.7774 19H16.1397C16.8428 19.001 17.5216 18.7423 18.0465 18.2733C18.6567 17.726 19.0038 16.9428 19 16.1218V13.2532C18.9759 11.8835 17.9895 10.7221 16.645 10.4803ZM17 16.0518C16.9997 16.322 16.8826 16.5789 16.6788 16.7572C16.4659 16.9417 16.1841 17.0273 15.904 16.9923C8.62532 16.0633 2.90474 10.3414 2.00603 3.09125C1.97564 2.81285 2.06099 2.53419 2.24223 2.32002C2.42133 2.11706 2.67946 2.00058 2.95083 2.00024H5.78523C6.23844 1.9902 6.63494 2.30202 6.73003 2.74326C6.76782 3.00034 6.81506 3.25428 6.87175 3.50509C6.98089 4.00089 7.12614 4.48812 7.30636 4.96292L5.98364 5.57426C5.75522 5.67859 5.57796 5.86921 5.49108 6.10397C5.4042 6.33872 5.41486 6.59826 5.52068 6.82517C6.88044 9.72461 9.2217 12.0553 12.1343 13.4089C12.3643 13.503 12.6223 13.503 12.8523 13.4089C13.0903 13.3242 13.2843 13.148 13.3909 12.9198L13.9766 11.6031C14.4651 11.777 14.9636 11.9214 15.4694 12.0357C15.7214 12.0922 15.9765 12.1392 16.2347 12.1768C16.678 12.2715 16.9912 12.6662 16.9811 13.1173L17 16.0518Z" fill="white"/>
</svg>
