<svg width="27" height="27" viewBox="0 0 27 27" fill="none" xmlns="http://www.w3.org/2000/svg">
<circle cx="13.5" cy="13.5" r="13.5" fill="#EEA8FD"/>
<path d="M18.8125 15.4375C18.6641 15.3638 18.4926 15.3521 18.3355 15.4048C18.1785 15.4575 18.0488 15.5705 17.975 15.7188C17.5794 16.5176 16.9774 17.1962 16.2314 17.6842C15.4854 18.1723 14.6225 18.4519 13.732 18.4943C12.8416 18.5367 11.956 18.3403 11.167 17.9254C10.378 17.5104 9.71426 16.8921 9.24457 16.1344C8.77487 15.3768 8.51628 14.5073 8.49559 13.6161C8.4749 12.7248 8.69286 11.8443 9.12688 11.0656C9.56091 10.287 10.1952 9.63851 10.9641 9.18741C11.733 8.73631 12.6085 8.49898 13.5 8.50001C14.4319 8.49597 15.3462 8.75478 16.1377 9.24673C16.9292 9.73867 17.566 10.4438 17.975 11.2813C18.0496 11.4304 18.1804 11.5439 18.3386 11.5966C18.4969 11.6494 18.6696 11.6371 18.8187 11.5625C18.9679 11.4879 19.0814 11.3571 19.1341 11.1989C19.1869 11.0406 19.1746 10.8679 19.1 10.7188C18.4729 9.45672 17.4376 8.44367 16.1623 7.84402C14.887 7.24438 13.4465 7.09334 12.0745 7.41543C10.7025 7.73751 9.4797 8.51381 8.60445 9.61833C7.7292 10.7228 7.25293 12.0907 7.25293 13.5C7.25293 14.9093 7.7292 16.2772 8.60445 17.3817C9.4797 18.4862 10.7025 19.2625 12.0745 19.5846C13.4465 19.9067 14.887 19.7556 16.1623 19.156C17.4376 18.5563 18.4729 17.5433 19.1 16.2813C19.1372 16.2071 19.1594 16.1263 19.165 16.0435C19.1707 15.9607 19.1599 15.8777 19.1331 15.7991C19.1063 15.7206 19.0642 15.6482 19.0092 15.5861C18.9541 15.524 18.8873 15.4735 18.8125 15.4375ZM19.125 12.875H13.1312L14.5687 11.4438C14.627 11.3855 14.6732 11.3163 14.7048 11.2402C14.7363 11.164 14.7526 11.0824 14.7526 11C14.7526 10.9176 14.7363 10.836 14.7048 10.7598C14.6732 10.6837 14.627 10.6145 14.5687 10.5563C14.5105 10.498 14.4413 10.4518 14.3652 10.4202C14.289 10.3887 14.2074 10.3724 14.125 10.3724C14.0426 10.3724 13.961 10.3887 13.8848 10.4202C13.8087 10.4518 13.7395 10.498 13.6812 10.5563L11.1812 13.0563C11.1243 13.1157 11.0797 13.1858 11.05 13.2625C10.9875 13.4147 10.9875 13.5853 11.05 13.7375C11.0797 13.8142 11.1243 13.8843 11.1812 13.9438L13.6812 16.4438C13.7393 16.5023 13.8085 16.5488 13.8846 16.5806C13.9608 16.6123 14.0425 16.6286 14.125 16.6286C14.2075 16.6286 14.2892 16.6123 14.3654 16.5806C14.4415 16.5488 14.5106 16.5023 14.5687 16.4438C14.6273 16.3857 14.6738 16.3165 14.7056 16.2404C14.7373 16.1642 14.7536 16.0825 14.7536 16C14.7536 15.9175 14.7373 15.8358 14.7056 15.7596C14.6738 15.6835 14.6273 15.6144 14.5687 15.5563L13.1312 14.125H19.125C19.2908 14.125 19.4497 14.0592 19.5669 13.9419C19.6841 13.8247 19.75 13.6658 19.75 13.5C19.75 13.3342 19.6841 13.1753 19.5669 13.0581C19.4497 12.9409 19.2908 12.875 19.125 12.875Z" fill="white"/>
</svg>
