<svg width="27" height="27" viewBox="0 0 27 27" fill="none" xmlns="http://www.w3.org/2000/svg">
<circle cx="13.5" cy="13.5" r="13.5" fill="#FF7474"/>
<path d="M13.1748 14.5813C13.9515 14.5813 14.5811 13.9517 14.5811 13.175C14.5811 12.3984 13.9515 11.7688 13.1748 11.7688C12.3982 11.7688 11.7686 12.3984 11.7686 13.175C11.7686 13.9517 12.3982 14.5813 13.1748 14.5813Z" stroke="#FBFCFD" stroke-width="1.2" stroke-miterlimit="10" stroke-linecap="round" stroke-linejoin="round"/>
<path d="M16.8311 11.7688V14.5813" stroke="#FBFCFD" stroke-width="1.2" stroke-miterlimit="10" stroke-linecap="round" stroke-linejoin="round"/>
<path d="M11.4873 16.55C11.4873 16.9719 11.3692 17.3713 11.1611 17.7088C10.7729 18.3613 10.0586 18.8 9.2373 18.8C8.41605 18.8 7.70167 18.3613 7.31355 17.7088C7.10542 17.3713 6.9873 16.9719 6.9873 16.55C6.9873 15.3069 7.99418 14.3 9.2373 14.3C10.4804 14.3 11.4873 15.3069 11.4873 16.55Z" stroke="#FBFCFD" stroke-width="1.0125" stroke-miterlimit="10" stroke-linecap="round" stroke-linejoin="round"/>
<path d="M10.0766 16.5386H8.40039" stroke="#FBFCFD" stroke-width="1.2" stroke-miterlimit="10" stroke-linecap="round" stroke-linejoin="round"/>
<path d="M9.23779 15.7173V17.3992" stroke="#FBFCFD" stroke-width="1.2" stroke-miterlimit="10" stroke-linecap="round" stroke-linejoin="round"/>
<path d="M7.5498 15.0313V11.4875C7.5498 9.5188 8.6748 8.67505 10.3623 8.67505H15.9873C17.6748 8.67505 18.7998 9.5188 18.7998 11.4875V14.8625C18.7998 16.8313 17.6748 17.675 15.9873 17.675H11.2061" stroke="#FBFCFD" stroke-width="1.2" stroke-miterlimit="10" stroke-linecap="round" stroke-linejoin="round"/>
</svg>
