<svg width="40" height="40" viewBox="0 0 40 40" fill="none" xmlns="http://www.w3.org/2000/svg">
<circle cx="20" cy="20" r="19.5" stroke="#E44203" stroke-opacity="0.12"/>
<path d="M28.8675 15.6901C28.2689 15.9562 27.6371 16.1224 26.972 16.2222C27.6371 15.8231 28.1692 15.1913 28.402 14.4264C27.7701 14.7922 27.0717 15.0583 26.3068 15.2245C25.7082 14.5927 24.8436 14.1936 23.9124 14.1936C22.1166 14.1936 20.6534 15.6569 20.6534 17.4527C20.6534 17.7187 20.6866 17.9515 20.7531 18.1843C18.0594 18.0513 15.6318 16.7543 14.0022 14.759C13.7362 15.2578 13.5699 15.7899 13.5699 16.3885C13.5699 17.5192 14.1352 18.5168 15.0332 19.1155C14.5011 19.0822 14.0022 18.9492 13.5366 18.7164V18.7496C13.5366 20.3459 14.6673 21.6761 16.1638 21.9754C15.8978 22.042 15.5985 22.0752 15.2992 22.0752C15.0997 22.0752 14.8669 22.042 14.6673 22.0087C15.0997 23.3057 16.2969 24.2701 17.7269 24.2701C16.5962 25.1347 15.1994 25.6668 13.6697 25.6668C13.4036 25.6668 13.1376 25.6668 12.9048 25.6336C14.368 26.5647 16.0641 27.0968 17.9264 27.0968C23.9457 27.0968 27.238 22.1085 27.238 17.7852C27.238 17.6522 27.238 17.4859 27.238 17.3529C27.8699 16.9206 28.4352 16.3552 28.8675 15.6901Z" fill="#E44203"/>
</svg>
