<?xml version="1.0" encoding="UTF-8"?>
<!DOCTYPE svg PUBLIC "-//W3C//DTD SVG 1.1//EN" "http://www.w3.org/Graphics/SVG/1.1/DTD/svg11.dtd">
<svg xmlns="http://www.w3.org/2000/svg" version="1.1" width="312px" height="264px" style="shape-rendering:geometricPrecision; text-rendering:geometricPrecision; image-rendering:optimizeQuality; fill-rule:evenodd; clip-rule:evenodd" xmlns:xlink="http://www.w3.org/1999/xlink">
<g><path style="opacity:0.999" fill="#fcfcfc" d="M 122.5,-0.5 C 128.167,-0.5 133.833,-0.5 139.5,-0.5C 176.437,3.05223 207.271,18.7189 232,46.5C 235.388,51.0477 238.555,55.7144 241.5,60.5C 241.392,62.7834 240.559,64.7834 239,66.5C 216.667,96.1667 194.333,125.833 172,155.5C 171.282,156.451 170.449,156.617 169.5,156C 166.151,152.995 162.484,150.495 158.5,148.5C 158.5,141.833 158.5,135.167 158.5,128.5C 158.5,114.167 158.5,99.8333 158.5,85.5C 175.5,85.5 192.5,85.5 209.5,85.5C 209.83,68.3251 209.497,51.3251 208.5,34.5C 181.833,34.5 155.167,34.5 128.5,34.5C 127.503,50.9916 127.17,67.6583 127.5,84.5C 119.833,84.5 112.167,84.5 104.5,84.5C 104.83,67.6583 104.497,50.9916 103.5,34.5C 86.5,34.5 69.5,34.5 52.5,34.5C 52.5,45.1667 52.5,55.8333 52.5,66.5C 52.5,72.8333 52.5,79.1667 52.5,85.5C 69.5,85.5 86.5,85.5 103.5,85.5C 103.5,93.5 103.5,101.5 103.5,109.5C 98.0525,106.269 92.7192,102.769 87.5,99C 86.5,98.3333 85.5,98.3333 84.5,99C 58.6152,122.519 32.4485,145.686 6,168.5C 5.61742,167.944 5.11742,167.611 4.5,167.5C 2.17643,159.874 0.509766,152.207 -0.5,144.5C -0.5,135.5 -0.5,126.5 -0.5,117.5C 0.333818,112.897 1.33382,108.231 2.5,103.5C 3.92381,101.485 4.59047,99.1522 4.5,96.5C 8.56759,78.6959 16.5676,63.0293 28.5,49.5C 29.9063,49.0269 30.573,48.0269 30.5,46.5C 45.0214,28.9046 63.0214,16.238 84.5,8.5C 89.1646,7.9431 93.4979,6.60976 97.5,4.5C 105.697,2.07874 114.03,0.412074 122.5,-0.5 Z"/></g>
<g><path style="opacity:0.337" fill="#600532" d="M 311.5,4.5 C 311.5,6.5 311.5,8.5 311.5,10.5C 311.167,10.5 310.833,10.5 310.5,10.5C 310.843,8.51676 310.176,7.18342 308.5,6.5C 309.29,5.59872 310.29,4.93205 311.5,4.5 Z"/></g>
<g><path style="opacity:0.843" fill="#b6b5b6" d="M 97.5,4.5 C 93.4979,6.60976 89.1646,7.9431 84.5,8.5C 88.5021,6.39024 92.8354,5.0569 97.5,4.5 Z"/></g>
<g><path style="opacity:0.999" fill="#e50c70" d="M 308.5,6.5 C 310.176,7.18342 310.843,8.51676 310.5,10.5C 309.182,31.3522 307.015,52.0189 304,72.5C 300.188,69.3596 296.355,66.3596 292.5,63.5C 292.25,62.0779 291.417,61.0779 290,60.5C 289.184,45.0923 289.351,29.759 290.5,14.5C 296.15,11.2739 302.15,8.60719 308.5,6.5 Z"/></g>
<g><path style="opacity:0.998" fill="#e8126a" d="M 290.5,14.5 C 289.351,29.759 289.184,45.0923 290,60.5C 291.417,61.0779 292.25,62.0779 292.5,63.5C 291.033,62.7084 289.7,62.7084 288.5,63.5C 284.161,69.829 279.494,75.829 274.5,81.5C 275.154,61.4716 274.488,41.8049 272.5,22.5C 278.196,19.3224 284.196,16.6557 290.5,14.5 Z"/></g>
<g><path style="opacity:0.998" fill="#e91764" d="M 272.5,22.5 C 274.488,41.8049 275.154,61.4716 274.5,81.5C 269.306,89.2333 263.639,96.5666 257.5,103.5C 257.83,87.3246 257.496,71.3246 256.5,55.5C 258.531,51.289 261.198,47.4556 264.5,44C 259.5,40.3333 254.5,36.6667 249.5,33C 256.919,28.957 264.586,25.457 272.5,22.5 Z"/></g>
<g><path style="opacity:1" fill="#fe6805" d="M 103.5,34.5 C 103.5,40.5 103.5,46.5 103.5,52.5C 102.539,50.7354 102.205,48.7354 102.5,46.5C 86.1667,46.5 69.8333,46.5 53.5,46.5C 53.5,51.1667 53.5,55.8333 53.5,60.5C 53.5,62.5 53.5,64.5 53.5,66.5C 53.1667,66.5 52.8333,66.5 52.5,66.5C 52.5,55.8333 52.5,45.1667 52.5,34.5C 69.5,34.5 86.5,34.5 103.5,34.5 Z"/></g>
<g><path style="opacity:1" fill="#fe6803" d="M 128.5,34.5 C 155.167,34.5 181.833,34.5 208.5,34.5C 208.5,38.5 208.5,42.5 208.5,46.5C 182.167,46.5 155.833,46.5 129.5,46.5C 129.821,51.6946 129.487,56.6946 128.5,61.5C 128.5,52.5 128.5,43.5 128.5,34.5 Z"/></g>
<g><path style="opacity:0.741" fill="#858484" d="M 30.5,46.5 C 30.573,48.0269 29.9063,49.0269 28.5,49.5C 28.427,47.9731 29.0937,46.9731 30.5,46.5 Z"/></g>
<g><path style="opacity:1" fill="#fee8de" d="M 103.5,34.5 C 104.497,50.9916 104.83,67.6583 104.5,84.5C 112.167,84.5 119.833,84.5 127.5,84.5C 127.17,67.6583 127.503,50.9916 128.5,34.5C 128.5,43.5 128.5,52.5 128.5,61.5C 128.5,69.5 128.5,77.5 128.5,85.5C 120.5,85.5 112.5,85.5 104.5,85.5C 104.167,85.5 103.833,85.5 103.5,85.5C 103.5,85.1667 103.5,84.8333 103.5,84.5C 103.5,80.1667 103.5,75.8333 103.5,71.5C 103.5,68.1667 103.5,64.8333 103.5,61.5C 103.5,58.5 103.5,55.5 103.5,52.5C 103.5,46.5 103.5,40.5 103.5,34.5 Z"/></g>
<g><path style="opacity:1" fill="#fd600c" d="M 103.5,52.5 C 103.5,55.5 103.5,58.5 103.5,61.5C 86.9105,60.5152 70.2439,60.1819 53.5,60.5C 53.5,55.8333 53.5,51.1667 53.5,46.5C 69.8333,46.5 86.1667,46.5 102.5,46.5C 102.205,48.7354 102.539,50.7354 103.5,52.5 Z"/></g>
<g><path style="opacity:0.996" fill="#eb1d5e" d="M 256.5,55.5 C 257.496,71.3246 257.83,87.3246 257.5,103.5C 252.653,111.196 247.32,118.529 241.5,125.5C 242.151,109.132 241.485,93.1317 239.5,77.5C 241.859,74.1486 244.192,70.8153 246.5,67.5C 249.457,63.2079 252.79,59.2079 256.5,55.5 Z"/></g>
<g><path style="opacity:1" fill="#fc5d10" d="M 208.5,46.5 C 208.5,55.8333 208.5,65.1667 208.5,74.5C 182.167,74.5 155.833,74.5 129.5,74.5C 129.815,78.3714 129.482,82.0381 128.5,85.5C 128.5,77.5 128.5,69.5 128.5,61.5C 129.487,56.6946 129.821,51.6946 129.5,46.5C 155.833,46.5 182.167,46.5 208.5,46.5 Z"/></g>
<g><path style="opacity:1" fill="#d9d7db" d="M 241.5,60.5 C 243.412,62.6572 245.079,64.9906 246.5,67.5C 244.192,70.8153 241.859,74.1486 239.5,77.5C 235.254,82.9913 231.254,88.6579 227.5,94.5C 221.45,100.922 216.117,107.922 211.5,115.5C 205.455,122.88 199.788,130.546 194.5,138.5C 189.482,144.19 184.815,150.19 180.5,156.5C 177.745,160.434 174.745,164.267 171.5,168C 169.213,168.028 167.213,167.195 165.5,165.5C 162.953,164.066 160.619,162.4 158.5,160.5C 158.5,156.5 158.5,152.5 158.5,148.5C 162.484,150.495 166.151,152.995 169.5,156C 170.449,156.617 171.282,156.451 172,155.5C 194.333,125.833 216.667,96.1667 239,66.5C 240.559,64.7834 241.392,62.7834 241.5,60.5 Z"/></g>
<g><path style="opacity:1" fill="#fc5914" d="M 53.5,60.5 C 70.2439,60.1819 86.9105,60.5152 103.5,61.5C 103.5,64.8333 103.5,68.1667 103.5,71.5C 102.596,72.209 102.263,73.209 102.5,74.5C 86.1667,74.5 69.8333,74.5 53.5,74.5C 53.5,71.8333 53.5,69.1667 53.5,66.5C 53.5,64.5 53.5,62.5 53.5,60.5 Z"/></g>
<g><path style="opacity:1" fill="#fa531c" d="M 103.5,71.5 C 103.5,75.8333 103.5,80.1667 103.5,84.5C 86.8333,84.5 70.1667,84.5 53.5,84.5C 53.5,81.1667 53.5,77.8333 53.5,74.5C 69.8333,74.5 86.1667,74.5 102.5,74.5C 102.263,73.209 102.596,72.209 103.5,71.5 Z"/></g>
<g><path style="opacity:1" fill="#fa521d" d="M 208.5,74.5 C 208.5,77.8333 208.5,81.1667 208.5,84.5C 191.658,84.1702 174.992,84.5035 158.5,85.5C 157.539,87.2646 157.205,89.2646 157.5,91.5C 139.833,91.5 122.167,91.5 104.5,91.5C 104.5,89.5 104.5,87.5 104.5,85.5C 112.5,85.5 120.5,85.5 128.5,85.5C 129.482,82.0381 129.815,78.3714 129.5,74.5C 155.833,74.5 182.167,74.5 208.5,74.5 Z"/></g>
<g><path style="opacity:0.998" fill="#ee2259" d="M 239.5,77.5 C 241.485,93.1317 242.151,109.132 241.5,125.5C 237.519,131.475 233.186,137.142 228.5,142.5C 228.83,126.325 228.496,110.325 227.5,94.5C 231.254,88.6579 235.254,82.9913 239.5,77.5 Z"/></g>
<g><path style="opacity:1" fill="#fb683a" d="M 52.5,66.5 C 52.8333,66.5 53.1667,66.5 53.5,66.5C 53.5,69.1667 53.5,71.8333 53.5,74.5C 53.5,77.8333 53.5,81.1667 53.5,84.5C 70.1667,84.5 86.8333,84.5 103.5,84.5C 103.5,84.8333 103.5,85.1667 103.5,85.5C 86.5,85.5 69.5,85.5 52.5,85.5C 52.5,79.1667 52.5,72.8333 52.5,66.5 Z"/></g>
<g><path style="opacity:1" fill="#fb703f" d="M 208.5,34.5 C 209.497,51.3251 209.83,68.3251 209.5,85.5C 192.5,85.5 175.5,85.5 158.5,85.5C 174.992,84.5035 191.658,84.1702 208.5,84.5C 208.5,81.1667 208.5,77.8333 208.5,74.5C 208.5,65.1667 208.5,55.8333 208.5,46.5C 208.5,42.5 208.5,38.5 208.5,34.5 Z"/></g>
<g><path style="opacity:1" fill="#f8462c" d="M 104.5,91.5 C 122.167,91.5 139.833,91.5 157.5,91.5C 157.5,94.5 157.5,97.5 157.5,100.5C 139.833,100.5 122.167,100.5 104.5,100.5C 104.5,97.5 104.5,94.5 104.5,91.5 Z"/></g>
<g><path style="opacity:1" fill="#d9d7da" d="M 103.5,109.5 C 103.5,109.833 103.5,110.167 103.5,110.5C 103.5,114.5 103.5,118.5 103.5,122.5C 103.167,122.5 102.833,122.5 102.5,122.5C 99.0484,119.601 95.3817,116.934 91.5,114.5C 89.8487,113.03 88.0153,111.697 86,110.5C 75.9731,119.032 66.1397,127.699 56.5,136.5C 40.1785,150.156 24.1785,164.156 8.5,178.5C 6.39867,175.203 5.06533,171.537 4.5,167.5C 5.11742,167.611 5.61742,167.944 6,168.5C 32.4485,145.686 58.6152,122.519 84.5,99C 85.5,98.3333 86.5,98.3333 87.5,99C 92.7192,102.769 98.0525,106.269 103.5,109.5 Z"/></g>
<g><path style="opacity:0.569" fill="#939192" d="M 4.5,96.5 C 4.59047,99.1522 3.92381,101.485 2.5,103.5C 2.40953,100.848 3.07619,98.5145 4.5,96.5 Z"/></g>
<g><path style="opacity:0.998" fill="#ef2753" d="M 227.5,94.5 C 228.496,110.325 228.83,126.325 228.5,142.5C 223.883,150.078 218.55,157.078 212.5,163.5C 212.83,147.325 212.496,131.325 211.5,115.5C 216.117,107.922 221.45,100.922 227.5,94.5 Z"/></g>
<g><path style="opacity:1" fill="#f63d39" d="M 103.5,85.5 C 103.833,85.5 104.167,85.5 104.5,85.5C 104.5,87.5 104.5,89.5 104.5,91.5C 104.5,94.5 104.5,97.5 104.5,100.5C 122.167,100.5 139.833,100.5 157.5,100.5C 157.5,104.167 157.5,107.833 157.5,111.5C 140.5,111.5 123.5,111.5 106.5,111.5C 105.391,111.443 104.391,111.11 103.5,110.5C 103.5,110.167 103.5,109.833 103.5,109.5C 103.5,101.5 103.5,93.5 103.5,85.5 Z"/></g>
<g><path style="opacity:1" fill="#f43443" d="M 106.5,111.5 C 123.5,111.5 140.5,111.5 157.5,111.5C 157.5,115.167 157.5,118.833 157.5,122.5C 145.833,122.5 134.167,122.5 122.5,122.5C 116.612,119.607 111.278,115.94 106.5,111.5 Z"/></g>
<g><path style="opacity:0.999" fill="#f64d22" d="M 91.5,114.5 C 95.3817,116.934 99.0484,119.601 102.5,122.5C 102.828,134.345 102.495,146.012 101.5,157.5C 97.9754,156.241 94.9754,154.241 92.5,151.5C 92.0269,150.094 91.0269,149.427 89.5,149.5C 88.8333,149.5 88.1667,149.5 87.5,149.5C 88.7949,137.703 90.1282,126.036 91.5,114.5 Z"/></g>
<g><path style="opacity:0.998" fill="#f9f8f8" d="M 136.5,263.5 C 132.833,263.5 129.167,263.5 125.5,263.5C 117.516,262.665 109.516,261.331 101.5,259.5C 99.4855,258.076 97.1522,257.41 94.5,257.5C 69.3366,250.66 48.3366,237.327 31.5,217.5C 31.5,216.167 31.5,214.833 31.5,213.5C 50.1606,196.844 69.1606,180.511 88.5,164.5C 94.2473,167.696 99.5806,171.362 104.5,175.5C 103.51,181.645 103.177,187.978 103.5,194.5C 103.5,198.167 103.5,201.833 103.5,205.5C 103.5,208.5 103.5,211.5 103.5,214.5C 103.5,218.5 103.5,222.5 103.5,226.5C 121.833,226.5 140.167,226.5 158.5,226.5C 158.182,221.968 158.515,217.634 159.5,213.5C 165.484,216.828 171.15,220.661 176.5,225C 177.5,225.667 178.5,225.667 179.5,225C 206.788,188.923 233.955,152.756 261,116.5C 265.738,170.312 245.904,212.479 201.5,243C 181.426,255.262 159.76,262.095 136.5,263.5 Z"/></g>
<g><path style="opacity:1" fill="#d02b46" d="M 103.5,110.5 C 104.391,111.11 105.391,111.443 106.5,111.5C 111.278,115.94 116.612,119.607 122.5,122.5C 124.36,123.939 126.027,125.605 127.5,127.5C 122.305,127.179 117.305,127.513 112.5,128.5C 109.5,126.5 106.5,124.5 103.5,122.5C 103.5,118.5 103.5,114.5 103.5,110.5 Z"/></g>
<g><path style="opacity:1" fill="#f33453" d="M 158.5,85.5 C 158.5,99.8333 158.5,114.167 158.5,128.5C 157.566,129.568 157.232,130.901 157.5,132.5C 150.5,132.5 143.5,132.5 136.5,132.5C 133.634,130.568 130.634,128.901 127.5,127.5C 126.027,125.605 124.36,123.939 122.5,122.5C 134.167,122.5 145.833,122.5 157.5,122.5C 157.5,118.833 157.5,115.167 157.5,111.5C 157.5,107.833 157.5,104.167 157.5,100.5C 157.5,97.5 157.5,94.5 157.5,91.5C 157.205,89.2646 157.539,87.2646 158.5,85.5 Z"/></g>
<g><path style="opacity:0.999" fill="#f64828" d="M 102.5,122.5 C 102.833,122.5 103.167,122.5 103.5,122.5C 106.5,124.5 109.5,126.5 112.5,128.5C 114.5,130.167 116.5,131.833 118.5,133.5C 118.667,145.171 118.5,156.838 118,168.5C 117.329,167.748 116.496,167.414 115.5,167.5C 110.531,164.522 105.865,161.189 101.5,157.5C 102.495,146.012 102.828,134.345 102.5,122.5 Z"/></g>
<g><path style="opacity:0.999" fill="#f75619" d="M 91.5,114.5 C 90.1282,126.036 88.7949,137.703 87.5,149.5C 77.2046,157.793 67.2046,166.46 57.5,175.5C 57.8288,162.323 57.4955,149.323 56.5,136.5C 66.1397,127.699 75.9731,119.032 86,110.5C 88.0153,111.697 89.8487,113.03 91.5,114.5 Z"/></g>
<g><path style="opacity:0.999" fill="#ef2c4c" d="M 211.5,115.5 C 212.496,131.325 212.83,147.325 212.5,163.5C 207.212,171.454 201.545,179.12 195.5,186.5C 195.83,170.325 195.496,154.325 194.5,138.5C 199.788,130.546 205.455,122.88 211.5,115.5 Z"/></g>
<g><path style="opacity:0.999" fill="#f3432d" d="M 118.5,133.5 C 122.816,136.14 127.149,138.806 131.5,141.5C 131.833,142.5 132.5,143.167 133.5,143.5C 134.145,155.548 133.478,167.215 131.5,178.5C 125.782,175.314 120.448,171.648 115.5,167.5C 116.496,167.414 117.329,167.748 118,168.5C 118.5,156.838 118.667,145.171 118.5,133.5 Z"/></g>
<g><path style="opacity:1" fill="#f0205b" d="M 136.5,132.5 C 143.5,132.5 150.5,132.5 157.5,132.5C 157.666,137.511 157.499,142.511 157,147.5C 153.729,144.784 150.229,142.451 146.5,140.5C 143.167,137.833 139.833,135.167 136.5,132.5 Z"/></g>
<g><path style="opacity:1" fill="#ce2052" d="M 127.5,127.5 C 130.634,128.901 133.634,130.568 136.5,132.5C 139.833,135.167 143.167,137.833 146.5,140.5C 141.305,140.179 136.305,140.513 131.5,141.5C 127.149,138.806 122.816,136.14 118.5,133.5C 116.5,131.833 114.5,130.167 112.5,128.5C 117.305,127.513 122.305,127.179 127.5,127.5 Z"/></g>
<g><path style="opacity:1" fill="#ef3047" d="M 194.5,138.5 C 195.496,154.325 195.83,170.325 195.5,186.5C 191.066,193.049 186.399,199.383 181.5,205.5C 181.83,188.991 181.496,172.658 180.5,156.5C 184.815,150.19 189.482,144.19 194.5,138.5 Z"/></g>
<g><path style="opacity:0.999" fill="#f43f34" d="M 133.5,143.5 C 139.38,147.267 145.046,151.267 150.5,155.5C 150.667,167.171 150.5,178.838 150,190.5C 149.329,189.748 148.496,189.414 147.5,189.5C 145.205,188.525 143.205,187.192 141.5,185.5C 141.027,184.094 140.027,183.427 138.5,183.5C 135.865,182.189 133.531,180.522 131.5,178.5C 133.478,167.215 134.145,155.548 133.5,143.5 Z"/></g>
<g><path style="opacity:1" fill="#ce1c60" d="M 158.5,128.5 C 158.5,135.167 158.5,141.833 158.5,148.5C 158.5,152.5 158.5,156.5 158.5,160.5C 155.833,158.833 153.167,157.167 150.5,155.5C 145.046,151.267 139.38,147.267 133.5,143.5C 132.5,143.167 131.833,142.5 131.5,141.5C 136.305,140.513 141.305,140.179 146.5,140.5C 150.229,142.451 153.729,144.784 157,147.5C 157.499,142.511 157.666,137.511 157.5,132.5C 157.232,130.901 157.566,129.568 158.5,128.5 Z"/></g>
<g><path style="opacity:0.999" fill="#f8610b" d="M 56.5,136.5 C 57.4955,149.323 57.8288,162.323 57.5,175.5C 45.8528,185.477 34.1862,195.477 22.5,205.5C 16.0478,197.393 11.3811,188.393 8.5,178.5C 24.1785,164.156 40.1785,150.156 56.5,136.5 Z"/></g>
<g><path style="opacity:0.431" fill="#7a2615" d="M 89.5,149.5 C 91.0269,149.427 92.0269,150.094 92.5,151.5C 90.9731,151.573 89.9731,150.906 89.5,149.5 Z"/></g>
<g><path style="opacity:0.999" fill="#f2393a" d="M 150.5,155.5 C 153.167,157.167 155.833,158.833 158.5,160.5C 160.619,162.4 162.953,164.066 165.5,165.5C 166.145,177.548 165.478,189.215 163.5,200.5C 157.612,197.607 152.278,193.94 147.5,189.5C 148.496,189.414 149.329,189.748 150,190.5C 150.5,178.838 150.667,167.171 150.5,155.5 Z"/></g>
<g><path style="opacity:0.999" fill="#f23541" d="M 180.5,156.5 C 181.496,172.658 181.83,188.991 181.5,205.5C 180.488,206.872 179.488,208.205 178.5,209.5C 177.167,209.167 175.833,208.833 174.5,208.5C 170.618,206.066 166.952,203.399 163.5,200.5C 165.478,189.215 166.145,177.548 165.5,165.5C 167.213,167.195 169.213,168.028 171.5,168C 174.745,164.267 177.745,160.434 180.5,156.5 Z"/></g>
<g><path style="opacity:0.384" fill="#711c1c" d="M 138.5,183.5 C 140.027,183.427 141.027,184.094 141.5,185.5C 139.973,185.573 138.973,184.906 138.5,183.5 Z"/></g>
<g><path style="opacity:1" fill="#e94435" d="M 104.5,175.5 C 111.113,179.45 117.446,183.783 123.5,188.5C 117.167,188.5 110.833,188.5 104.5,188.5C 104.5,190.5 104.5,192.5 104.5,194.5C 104.167,194.5 103.833,194.5 103.5,194.5C 103.177,187.978 103.51,181.645 104.5,175.5 Z"/></g>
<g><path style="opacity:1" fill="#ef3640" d="M 123.5,188.5 C 127.336,190.584 131.003,192.917 134.5,195.5C 124.889,197.474 114.889,198.141 104.5,197.5C 104.5,196.5 104.5,195.5 104.5,194.5C 104.5,192.5 104.5,190.5 104.5,188.5C 110.833,188.5 117.167,188.5 123.5,188.5 Z"/></g>
<g><path style="opacity:0.741" fill="#7f2233" d="M 138.5,198.5 C 140.23,199.026 141.564,200.026 142.5,201.5C 140.368,201.446 139.035,200.446 138.5,198.5 Z"/></g>
<g><path style="opacity:1" fill="#f12c4d" d="M 134.5,195.5 C 135.833,196.5 137.167,197.5 138.5,198.5C 139.035,200.446 140.368,201.446 142.5,201.5C 130.211,203.48 117.544,204.147 104.5,203.5C 104.5,201.5 104.5,199.5 104.5,197.5C 114.889,198.141 124.889,197.474 134.5,195.5 Z"/></g>
<g><path style="opacity:0.999" fill="#ef2457" d="M 103.5,194.5 C 103.833,194.5 104.167,194.5 104.5,194.5C 104.5,195.5 104.5,196.5 104.5,197.5C 104.5,199.5 104.5,201.5 104.5,203.5C 117.544,204.147 130.211,203.48 142.5,201.5C 145.5,203.5 148.5,205.5 151.5,207.5C 136.202,209.484 120.536,210.151 104.5,209.5C 104.768,207.901 104.434,206.568 103.5,205.5C 103.5,201.833 103.5,198.167 103.5,194.5 Z"/></g>
<g><path style="opacity:0.553" fill="#6e1722" d="M 174.5,208.5 C 175.833,208.833 177.167,209.167 178.5,209.5C 176.872,210.853 175.538,210.519 174.5,208.5 Z"/></g>
<g><path style="opacity:0.796" fill="#817a7e" d="M 31.5,213.5 C 31.5,214.833 31.5,216.167 31.5,217.5C 28.8333,216.167 28.8333,214.833 31.5,213.5 Z"/></g>
<g><path style="opacity:1" fill="#ee1a65" d="M 103.5,205.5 C 104.434,206.568 104.768,207.901 104.5,209.5C 120.536,210.151 136.202,209.484 151.5,207.5C 153.909,208.701 155.909,210.367 157.5,212.5C 157.5,214.167 157.5,215.833 157.5,217.5C 139.833,217.5 122.167,217.5 104.5,217.5C 104.737,216.209 104.404,215.209 103.5,214.5C 103.5,211.5 103.5,208.5 103.5,205.5 Z"/></g>
<g><path style="opacity:1" fill="#ed1273" d="M 157.5,212.5 C 158.492,212.328 159.158,212.662 159.5,213.5C 158.515,217.634 158.182,221.968 158.5,226.5C 140.167,226.5 121.833,226.5 103.5,226.5C 103.5,222.5 103.5,218.5 103.5,214.5C 104.404,215.209 104.737,216.209 104.5,217.5C 122.167,217.5 139.833,217.5 157.5,217.5C 157.5,215.833 157.5,214.167 157.5,212.5 Z"/></g>
<g><path style="opacity:0.569" fill="#92888e" d="M 94.5,257.5 C 97.1522,257.41 99.4855,258.076 101.5,259.5C 98.8478,259.59 96.5145,258.924 94.5,257.5 Z"/></g>
</svg>
