<svg width="21" height="22" viewBox="0 0 21 22" fill="none" xmlns="http://www.w3.org/2000/svg">
<rect y="0.673218" width="21" height="21" rx="4.5" fill="#2C5FF6"/>
<path fill-rule="evenodd" clip-rule="evenodd" d="M10.5004 18.5234C14.5597 18.5234 17.8504 15.2327 17.8504 11.1734C17.8504 7.11407 14.5597 3.82336 10.5004 3.82336C6.4411 3.82336 3.15039 7.11407 3.15039 11.1734C3.15039 15.2327 6.4411 18.5234 10.5004 18.5234ZM8.66286 8.77327C8.3522 8.77327 8.10036 9.02511 8.10036 9.33577V13.0108C8.10036 13.3214 8.3522 13.5733 8.66286 13.5733H12.3379C12.6485 13.5733 12.9004 13.3214 12.9004 13.0108V9.33577C12.9004 9.02511 12.6485 8.77327 12.3379 8.77327H8.66286Z" fill="white"/>
</svg>
