<svg width="1em" height="1em" viewBox="0 0 24 18" fill="none" xmlns="http://www.w3.org/2000/svg" class="transition-all box-content animate-none" size="24" style="width: 24px; height: 24px;"><path fill-rule="evenodd" clip-rule="evenodd" d="M9.00067 2.2505L6 0H0.777153C0.348736 0 0.000488281 0.287228 0.000488281 0.643391V3.8519C0.000163277 3.86488 0 3.87794 0 3.89107V16.0873C0 17.1426 1.06177 18 2.36906 18H16C18.2091 18 20 16.6603 20 15.0034V4.16343C20 3.10549 18.9393 2.25115 17.6288 2.25115L9.00067 2.2505Z" fill="#DF9557"></path><path d="M21.6509 6C22.9487 6 24 6.83252 24 7.86343C24 8.89434 20.3775 16.1362 20.3775 16.1362C19.9823 16.877 18.8073 18 17.5074 18H2.3481C1.05238 18 0 17.1645 0 16.1362C0 15.1079 3.08747 8.5829 3.62354 7.86343C4.15961 7.14396 5.19379 6 6.49158 6" fill="#FFC993"></path></svg>