<svg width="21" height="22" viewBox="0 0 21 22" fill="none" xmlns="http://www.w3.org/2000/svg">
<rect y="0.673218" width="21" height="21" rx="4.5" fill="white"/>
<path d="M18.0662 3.01306L11.5078 7.88406L12.7206 5.01024L18.0662 3.01306Z" fill="#E2761B" stroke="#E2761B" stroke-width="0.0659134" stroke-linecap="round" stroke-linejoin="round"/>
<path d="M2.92676 3.01306L9.43241 7.9302L8.27892 5.01024L2.92676 3.01306Z" fill="#E4761B" stroke="#E4761B" stroke-width="0.0659134" stroke-linecap="round" stroke-linejoin="round"/>
<path d="M15.7067 14.3041L13.96 16.9802L17.6972 18.0084L18.7716 14.3634L15.7067 14.3041Z" fill="#E4761B" stroke="#E4761B" stroke-width="0.0659134" stroke-linecap="round" stroke-linejoin="round"/>
<path d="M2.23438 14.3634L3.30217 18.0084L7.03946 16.9802L5.29276 14.3041L2.23438 14.3634Z" fill="#E4761B" stroke="#E4761B" stroke-width="0.0659134" stroke-linecap="round" stroke-linejoin="round"/>
<path d="M6.82854 9.78244L5.78711 11.3578L9.49803 11.5225L9.36621 7.53479L6.82854 9.78244Z" fill="#E4761B" stroke="#E4761B" stroke-width="0.0659134" stroke-linecap="round" stroke-linejoin="round"/>
<path d="M14.1641 9.78243L11.5935 7.48865L11.5078 11.5225L15.2121 11.3578L14.1641 9.78243Z" fill="#E4761B" stroke="#E4761B" stroke-width="0.0659134" stroke-linecap="round" stroke-linejoin="round"/>
<path d="M7.03906 16.98L9.26693 15.8925L7.34226 14.3896L7.03906 16.98Z" fill="#E4761B" stroke="#E4761B" stroke-width="0.0659134" stroke-linecap="round" stroke-linejoin="round"/>
<path d="M11.7256 15.8925L13.96 16.98L13.6503 14.3896L11.7256 15.8925Z" fill="#E4761B" stroke="#E4761B" stroke-width="0.0659134" stroke-linecap="round" stroke-linejoin="round"/>
<path d="M13.961 16.9801L11.7266 15.8926L11.9045 17.3493L11.8848 17.9623L13.961 16.9801Z" fill="#D7C1B3" stroke="#D7C1B3" stroke-width="0.0659134" stroke-linecap="round" stroke-linejoin="round"/>
<path d="M7.04004 16.9801L9.11631 17.9623L9.10313 17.3493L9.26791 15.8926L7.04004 16.9801Z" fill="#D7C1B3" stroke="#D7C1B3" stroke-width="0.0659134" stroke-linecap="round" stroke-linejoin="round"/>
<path d="M9.1488 13.4275L7.29004 12.8805L8.60172 12.2806L9.1488 13.4275Z" fill="#233447" stroke="#233447" stroke-width="0.0659134" stroke-linecap="round" stroke-linejoin="round"/>
<path d="M11.8447 13.4275L12.3918 12.2806L13.7101 12.8805L11.8447 13.4275Z" fill="#233447" stroke="#233447" stroke-width="0.0659134" stroke-linecap="round" stroke-linejoin="round"/>
<path d="M7.03967 16.9802L7.35606 14.3041L5.29297 14.3634L7.03967 16.9802Z" fill="#CD6116" stroke="#CD6116" stroke-width="0.0659134" stroke-linecap="round" stroke-linejoin="round"/>
<path d="M13.6436 14.3041L13.9599 16.9802L15.7066 14.3634L13.6436 14.3041Z" fill="#CD6116" stroke="#CD6116" stroke-width="0.0659134" stroke-linecap="round" stroke-linejoin="round"/>
<path d="M15.2121 11.3578L11.5078 11.5226L11.8506 13.4275L12.3976 12.2806L13.7159 12.8804L15.2121 11.3578Z" fill="#CD6116" stroke="#CD6116" stroke-width="0.0659134" stroke-linecap="round" stroke-linejoin="round"/>
<path d="M7.28993 12.8804L8.6082 12.2806L9.14869 13.4275L9.49803 11.5226L5.78711 11.3578L7.28993 12.8804Z" fill="#CD6116" stroke="#CD6116" stroke-width="0.0659134" stroke-linecap="round" stroke-linejoin="round"/>
<path d="M5.78711 11.3578L7.34266 14.3898L7.28993 12.8804L5.78711 11.3578Z" fill="#E4751F" stroke="#E4751F" stroke-width="0.0659134" stroke-linecap="round" stroke-linejoin="round"/>
<path d="M13.7163 12.8804L13.6504 14.3898L15.2125 11.3578L13.7163 12.8804Z" fill="#E4751F" stroke="#E4751F" stroke-width="0.0659134" stroke-linecap="round" stroke-linejoin="round"/>
<path d="M9.49778 11.5225L9.14844 13.4274L9.58347 15.675L9.68234 12.7155L9.49778 11.5225Z" fill="#E4751F" stroke="#E4751F" stroke-width="0.0659134" stroke-linecap="round" stroke-linejoin="round"/>
<path d="M11.508 11.5225L11.3301 12.7089L11.4092 15.675L11.8508 13.4274L11.508 11.5225Z" fill="#E4751F" stroke="#E4751F" stroke-width="0.0659134" stroke-linecap="round" stroke-linejoin="round"/>
<path d="M11.8508 13.4276L11.4092 15.6752L11.7256 15.8927L13.6502 14.3899L13.7161 12.8805L11.8508 13.4276Z" fill="#F6851B" stroke="#F6851B" stroke-width="0.0659134" stroke-linecap="round" stroke-linejoin="round"/>
<path d="M7.29004 12.8805L7.34277 14.3899L9.26744 15.8927L9.58382 15.6752L9.1488 13.4276L7.29004 12.8805Z" fill="#F6851B" stroke="#F6851B" stroke-width="0.0659134" stroke-linecap="round" stroke-linejoin="round"/>
<path d="M11.8847 17.9623L11.9044 17.3493L11.7397 17.2043H9.25473L9.10313 17.3493L9.11631 17.9623L7.04004 16.9802L7.76509 17.5734L9.23495 18.5951H11.7594L13.2359 17.5734L13.9609 16.9802L11.8847 17.9623Z" fill="#C0AD9E" stroke="#C0AD9E" stroke-width="0.0659134" stroke-linecap="round" stroke-linejoin="round"/>
<path d="M11.7259 15.8927L11.4095 15.6752H9.58371L9.26732 15.8927L9.10254 17.3494L9.25414 17.2044H11.7391L11.9039 17.3494L11.7259 15.8927Z" fill="#161616" stroke="#161616" stroke-width="0.0659134" stroke-linecap="round" stroke-linejoin="round"/>
<path d="M18.3433 8.20044L18.9036 5.51118L18.0665 3.01306L11.7256 7.71928L14.1644 9.78236L17.6117 10.7908L18.3762 9.90101L18.0467 9.66372L18.574 9.18255L18.1653 8.86617L18.6926 8.4641L18.3433 8.20044Z" fill="#763D16" stroke="#763D16" stroke-width="0.0659134" stroke-linecap="round" stroke-linejoin="round"/>
<path d="M2.0957 5.51118L2.65597 8.20044L2.30003 8.4641L2.82734 8.86617L2.42527 9.18255L2.95258 9.66372L2.62301 9.90101L3.38101 10.7908L6.82828 9.78236L9.26708 7.71928L2.92621 3.01306L2.0957 5.51118Z" fill="#763D16" stroke="#763D16" stroke-width="0.0659134" stroke-linecap="round" stroke-linejoin="round"/>
<path d="M17.6118 10.7908L14.1645 9.78235L15.2125 11.3577L13.6504 14.3897L15.7069 14.3633H18.7719L17.6118 10.7908Z" fill="#F6851B" stroke="#F6851B" stroke-width="0.0659134" stroke-linecap="round" stroke-linejoin="round"/>
<path d="M6.82854 9.78235L3.38127 10.7908L2.23438 14.3633H5.29276L7.34266 14.3897L5.78711 11.3577L6.82854 9.78235Z" fill="#F6851B" stroke="#F6851B" stroke-width="0.0659134" stroke-linecap="round" stroke-linejoin="round"/>
<path d="M11.5081 11.5226L11.7256 7.71942L12.7275 5.01038H8.27832L9.26702 7.71942L9.49772 11.5226L9.57681 12.7222L9.5834 15.6752H11.4092L11.4224 12.7222L11.5081 11.5226Z" fill="#F6851B" stroke="#F6851B" stroke-width="0.0659134" stroke-linecap="round" stroke-linejoin="round"/>
</svg>
