<svg width="21" height="22" viewBox="0 0 21 22" fill="none" xmlns="http://www.w3.org/2000/svg">
<rect y="0.673218" width="21" height="21" rx="4.5" fill="#3B99FC"/>
<path d="M6.29227 8.45372C8.61614 6.12985 12.3839 6.12985 14.7077 8.45372L14.9874 8.7334C15.1036 8.84959 15.1036 9.03798 14.9874 9.15417L14.0307 10.1109C13.9726 10.169 13.8784 10.169 13.8203 10.1109L13.4354 9.72603C11.8142 8.10484 9.18577 8.10484 7.56458 9.72603L7.15242 10.1382C7.09432 10.1963 7.00013 10.1963 6.94203 10.1382L5.98529 9.18147C5.8691 9.06527 5.8691 8.87689 5.98529 8.76069L6.29227 8.45372ZM16.6864 10.4323L17.5379 11.2838C17.654 11.4 17.654 11.5884 17.5379 11.7046L13.6984 15.5441C13.5822 15.6603 13.3938 15.6603 13.2776 15.5441C13.2776 15.5441 13.2776 15.5441 13.2776 15.5441L10.5526 12.8191C10.5236 12.7901 10.4765 12.7901 10.4474 12.8191C10.4474 12.8191 10.4474 12.8191 10.4474 12.8191L7.72248 15.5441C7.60629 15.6603 7.4179 15.6603 7.3017 15.5441C7.3017 15.5441 7.3017 15.5441 7.3017 15.5441L3.46215 11.7046C3.34595 11.5884 3.34595 11.4 3.46215 11.2838L4.31364 10.4323C4.42983 10.3161 4.61822 10.3161 4.73442 10.4323L7.45946 13.1573C7.48851 13.1864 7.53561 13.1864 7.56466 13.1573C7.56466 13.1573 7.56466 13.1573 7.56466 13.1573L10.2896 10.4323C10.4058 10.3161 10.5941 10.3161 10.7103 10.4323C10.7103 10.4323 10.7103 10.4323 10.7103 10.4323L13.4354 13.1573C13.4644 13.1864 13.5115 13.1864 13.5406 13.1573L16.2656 10.4323C16.3818 10.3162 16.5702 10.3162 16.6864 10.4323Z" fill="white"/>
</svg>
